<svg width="512" height="512" viewBox="0 0 512 512" fill="none" xmlns="http://www.w3.org/2000/svg">
  <!-- Background gradient -->
  <defs>
    <linearGradient id="grad1" x1="0%" y1="0%" x2="100%" y2="100%">
      <stop offset="0%" style="stop-color:rgb(147,51,234);stop-opacity:1" />
      <stop offset="100%" style="stop-color:rgb(59,130,246);stop-opacity:1" />
    </linearGradient>
    <linearGradient id="grad2" x1="0%" y1="0%" x2="100%" y2="100%">
      <stop offset="0%" style="stop-color:rgb(255,255,255);stop-opacity:1" />
      <stop offset="100%" style="stop-color:rgb(226,232,240);stop-opacity:1" />
    </linearGradient>
  </defs>
  
  <!-- Background rounded square -->
  <rect width="512" height="512" rx="110" fill="url(#grad1)"/>
  
  <!-- Brain icon (simplified) -->
  <g transform="translate(128, 128)">
    <!-- Left hemisphere -->
    <path d="M 80 40 Q 40 40 40 80 Q 40 120 60 140 Q 70 150 80 145 L 80 40 Z" fill="url(#grad2)" opacity="0.95"/>
    
    <!-- Right hemisphere -->
    <path d="M 176 40 Q 216 40 216 80 Q 216 120 196 140 Q 186 150 176 145 L 176 40 Z" fill="url(#grad2)" opacity="0.95"/>
    
    <!-- Center connection -->
    <rect x="75" y="40" width="106" height="110" fill="url(#grad2)" opacity="0.95"/>
    
    <!-- Brain details (simplified grooves) -->
    <path d="M 60 70 Q 80 75 90 70" stroke="rgb(147,51,234)" stroke-width="4" fill="none" opacity="0.4"/>
    <path d="M 60 90 Q 75 95 85 90" stroke="rgb(147,51,234)" stroke-width="4" fill="none" opacity="0.4"/>
    <path d="M 60 110 Q 80 115 90 110" stroke="rgb(147,51,234)" stroke-width="4" fill="none" opacity="0.4"/>
    
    <path d="M 196 70 Q 176 75 166 70" stroke="rgb(59,130,246)" stroke-width="4" fill="none" opacity="0.4"/>
    <path d="M 196 90 Q 181 95 171 90" stroke="rgb(59,130,246)" stroke-width="4" fill="none" opacity="0.4"/>
    <path d="M 196 110 Q 176 115 166 110" stroke="rgb(59,130,246)" stroke-width="4" fill="none" opacity="0.4"/>
    
    <!-- Plus symbol -->
    <g transform="translate(100, 170)">
      <circle cx="28" cy="28" r="35" fill="white" opacity="0.95"/>
      <rect x="20" y="12" width="16" height="32" fill="url(#grad1)" rx="4"/>
      <rect x="12" y="20" width="32" height="16" fill="url(#grad1)" rx="4"/>
    </g>
  </g>
  
  <!-- Shine effect -->
  <ellipse cx="200" cy="150" rx="120" ry="80" fill="white" opacity="0.1"/>
</svg>
